<?xml version="1.0" encoding="UTF-8" standalone="no"?>
<!-- Created with Inkscape (http://www.inkscape.org/) -->

<svg
   width="525.39099pt"
   height="525.39099pt"
   viewBox="0 0 185.34626 185.34626"
   version="1.1"
   id="svg1"
   xml:space="preserve"
   sodipodi:docname="icon-dark.svg"
   inkscape:version="1.3.2 (091e20e, 2023-11-25, custom)"
   inkscape:export-filename="icon-dark.png"
   inkscape:export-xdpi="96"
   inkscape:export-ydpi="96"
   xmlns:inkscape="http://www.inkscape.org/namespaces/inkscape"
   xmlns:sodipodi="http://sodipodi.sourceforge.net/DTD/sodipodi-0.dtd"
   xmlns="http://www.w3.org/2000/svg"
   xmlns:svg="http://www.w3.org/2000/svg"><sodipodi:namedview
     id="namedview1"
     pagecolor="#ffffff"
     bordercolor="#000000"
     borderopacity="0.25"
     inkscape:showpageshadow="2"
     inkscape:pageopacity="0.0"
     inkscape:pagecheckerboard="0"
     inkscape:deskcolor="#d1d1d1"
     inkscape:document-units="mm"
     inkscape:zoom="0.28659614"
     inkscape:cx="380.32613"
     inkscape:cy="795.54457"
     inkscape:window-width="2560"
     inkscape:window-height="1369"
     inkscape:window-x="-8"
     inkscape:window-y="-8"
     inkscape:window-maximized="1"
     inkscape:current-layer="svg1" /><defs
     id="defs1"><clipPath
       clipPathUnits="userSpaceOnUse"
       id="clipPath4"><rect
         style="fill:#000000;fill-opacity:1;stroke:none;stroke-width:4.99996;stroke-dasharray:none;stroke-opacity:1"
         id="rect4"
         width="52.019844"
         height="99.959373"
         x="230.11734"
         y="79.376495" /></clipPath><clipPath
       clipPathUnits="userSpaceOnUse"
       id="clipPath5"><rect
         style="fill:#000000;fill-opacity:1;stroke:none;stroke-width:4.99996;stroke-dasharray:none;stroke-opacity:1"
         id="rect6"
         width="33.686562"
         height="80.509247"
         x="285.46851"
         y="89.114197" /></clipPath></defs><rect
     style="fill:#000000;fill-opacity:1;stroke:none;stroke-width:1.12702;stroke-linecap:square;stroke-miterlimit:3.3"
     id="rect1"
     width="185.34627"
     height="185.34627"
     x="0"
     y="0"
     ry="15.451756" /><g
     id="g5"
     clip-path="url(#clipPath5)"
     transform="matrix(0.74938886,0.49982941,-0.49982941,0.74938886,-88.601344,-158.054)"
     style="stroke-width:1.12288"><path
       d="m 247.47,358.4 v 0.04 c 0.07,19.17 7.72,37.53 21.27,51.09 13.55,13.56 31.92,21.2 51.09,21.27 39.86,0 72.41,-32.6 72.41,-72.4 0,-39.8 -32.6,-72.36 -72.41,-72.36 -39.81,0 -72.36,32.55 -72.36,72.36 z"
       fill="#000000"
       id="path4"
       transform="matrix(0.10410874,0,0,0.10410874,225.87364,76.34202)"
       style="fill:#ffffff;fill-opacity:1;stroke-width:1.12288" /><path
       d="M 492.38,128 H 324.7 c -52.16,0 -102.19,20.73 -139.08,57.61 A 196.655,196.655 0 0 0 128.01,324.69 V 698.7 c -0.01,25.84 5.08,51.42 14.96,75.29 9.88,23.87 24.36,45.56 42.63,63.83 18.27,18.27 39.95,32.76 63.82,42.65 a 196.67,196.67 0 0 0 75.28,14.98 h 167.68 c 3.03,0 5.46,-2.43 5.46,-5.42 V 133.42 c 0.6,-2.99 -1.83,-5.42 -5.46,-5.42 z M 436.27,833.88 H 324.7 c -17.76,0.13 -35.36,-3.33 -51.75,-10.18 -16.39,-6.85 -31.22,-16.94 -43.61,-29.67 -25.3,-25.35 -39.81,-59.1 -39.81,-95.32 V 324.69 c -0.13,-17.75 3.33,-35.35 10.17,-51.74 a 131.695,131.695 0 0 1 29.64,-43.62 c 25.39,-25.3 59.14,-39.81 95.36,-39.81 H 436.27 Z M 838.39,186.21 A 196.655,196.655 0 0 0 699.31,128.6 H 580.48 c -3.03,0 -4.82,2.43 -4.82,4.82 v 757.16 c -0.6,2.99 1.79,5.42 5.42,5.42 H 699.31 A 196.69,196.69 0 0 0 838.39,838.39 196.655,196.655 0 0 0 896,699.31 V 325.29 A 196.69,196.69 0 0 0 838.39,186.21 Z m -111.3,441.92 c -42.83,0 -77.82,-34.99 -77.82,-77.82 0,-42.83 34.98,-77.82 77.82,-77.82 42.83,0 77.82,34.99 77.82,77.82 0,42.83 -34.99,77.82 -77.82,77.82 z"
       fill="#000000"
       id="path5"
       transform="matrix(0.10410874,0,0,0.10410874,225.87364,76.34202)"
       style="fill:#ffffff;fill-opacity:1;stroke-width:1.12288" /></g><g
     id="g4"
     clip-path="url(#clipPath4)"
     transform="matrix(0.87655617,0.19592793,-0.19592793,0.87655617,-163.97534,-117.72354)"
     style="stroke-width:1.12613"><path
       d="m 247.47,358.4 v 0.04 c 0.07,19.17 7.72,37.53 21.27,51.09 13.55,13.56 31.92,21.2 51.09,21.27 39.86,0 72.41,-32.6 72.41,-72.4 0,-39.8 -32.6,-72.36 -72.41,-72.36 -39.81,0 -72.36,32.55 -72.36,72.36 z"
       fill="#000000"
       id="path1-3"
       transform="matrix(0.10410874,0,0,0.10410874,225.87364,76.34202)"
       style="fill:#ffffff;fill-opacity:1;stroke-width:1.12613" /><path
       d="M 492.38,128 H 324.7 c -52.16,0 -102.19,20.73 -139.08,57.61 A 196.655,196.655 0 0 0 128.01,324.69 V 698.7 c -0.01,25.84 5.08,51.42 14.96,75.29 9.88,23.87 24.36,45.56 42.63,63.83 18.27,18.27 39.95,32.76 63.82,42.65 a 196.67,196.67 0 0 0 75.28,14.98 h 167.68 c 3.03,0 5.46,-2.43 5.46,-5.42 V 133.42 c 0.6,-2.99 -1.83,-5.42 -5.46,-5.42 z M 436.27,833.88 H 324.7 c -17.76,0.13 -35.36,-3.33 -51.75,-10.18 -16.39,-6.85 -31.22,-16.94 -43.61,-29.67 -25.3,-25.35 -39.81,-59.1 -39.81,-95.32 V 324.69 c -0.13,-17.75 3.33,-35.35 10.17,-51.74 a 131.695,131.695 0 0 1 29.64,-43.62 c 25.39,-25.3 59.14,-39.81 95.36,-39.81 H 436.27 Z M 838.39,186.21 A 196.655,196.655 0 0 0 699.31,128.6 H 580.48 c -3.03,0 -4.82,2.43 -4.82,4.82 v 757.16 c -0.6,2.99 1.79,5.42 5.42,5.42 H 699.31 A 196.69,196.69 0 0 0 838.39,838.39 196.655,196.655 0 0 0 896,699.31 V 325.29 A 196.69,196.69 0 0 0 838.39,186.21 Z m -111.3,441.92 c -42.83,0 -77.82,-34.99 -77.82,-77.82 0,-42.83 34.98,-77.82 77.82,-77.82 42.83,0 77.82,34.99 77.82,77.82 0,42.83 -34.99,77.82 -77.82,77.82 z"
       fill="#000000"
       id="path2-6"
       transform="matrix(0.10410874,0,0,0.10410874,225.87364,76.34202)"
       style="fill:#ffffff;fill-opacity:1;stroke-width:1.12613" /></g><style
     type="text/css"
     id="style1">
	.st0{fill:#000000;}
</style><g
     id="g1"
     transform="matrix(0.38321622,0,0,0.36081244,-28.844321,85.715971)"
     style="stroke-width:0.418039">
	
</g><style
     type="text/css"
     id="style1-6">
	.st0{fill:#000000;}
</style><g
     id="g1-2"
     transform="matrix(0.27990273,0,0,0.27990273,48.101685,30.735049)"
     style="stroke-width:2.31049">
	<path
   class="st0"
   d="M 426.213,5.32 419.397,2.756 C 414.571,0.928 409.487,0 404.306,0 398.08,0 392.052,1.326 386.393,3.934 376.047,8.716 367.927,17.603 364.095,28.317 L 245.901,358.561 119.615,356.247 c -1.407,-0.066 -2.785,-0.103 -4.126,-0.103 -21.62,0 -39.658,9.122 -49.488,25.053 -9.3,15.047 -10.39,38.516 -2.741,58.449 l 6.234,16.866 C 80.179,489.724 110.707,512 145.613,512 c 2.823,0 5.704,-0.156 8.548,-0.457 l 98.762,-10.574 c 26.372,-2.83 48.84,-20.919 57.225,-46.084 L 321.415,421.077 451.311,59.731 C 459.151,37.926 447.892,13.522 426.213,5.32 Z m -133.241,405.772 -0.044,0.118 -0.044,0.111 -11.333,34.028 c -4.672,14.001 -17.169,24.059 -31.841,25.636 l -98.748,10.582 c -1.776,0.184 -3.581,0.287 -5.35,0.287 -21.855,0 -40.948,-14.015 -47.52,-34.883 l -0.081,-0.243 -0.082,-0.229 -6.432,-17.435 -0.03,-0.073 -0.029,-0.074 c -4.864,-12.6 -3.522,-25.827 0.214,-31.877 2.476,-4.016 8.864,-10.751 23.838,-10.751 0.928,0 1.901,0.029 2.866,0.081 l 0.192,0.015 h 0.199 l 126.609,2.321 h 0.56 c 12.453,0 23.786,-7.826 28.192,-19.475 l 0.03,-0.089 0.03,-0.088 77.71,-217.133 30.16,11.392 z"
   id="path1"
   style="fill:#ffffff;fill-opacity:1;stroke-width:2.31049" />
</g></svg>
